<svg width="58" height="73" viewBox="0 0 58 73" fill="none" xmlns="http://www.w3.org/2000/svg">
<path d="M44.1735 62.4451C48.3541 59.46 51.761 55.5193 54.1105 50.9511C56.46 46.383 57.6841 41.3196 57.6809 36.1827V9.49028C57.6827 8.95502 57.5646 8.42615 57.3352 7.94253C57.1058 7.45892 56.771 7.03285 56.3553 6.69564M44.1735 62.4451L43.8834 62.0379L43.8829 62.0382M44.1735 62.4451L31.096 71.7606M44.1735 62.4451L43.8829 62.0382M43.8829 62.0382C47.9987 59.0993 51.3528 55.2197 53.6658 50.7224C55.9789 46.2251 57.1841 41.2403 57.1809 36.183V36.1827V9.49028V9.48858C57.1825 9.02801 57.0808 8.57295 56.8835 8.15682C56.6861 7.7407 56.3979 7.37409 56.0403 7.08394M43.8829 62.0382L30.806 71.3533M56.0403 7.08394C56.0404 7.08408 56.0406 7.08423 56.0408 7.08437L56.3553 6.69564M56.0403 7.08394L56.3553 6.69564M56.0403 7.08394C55.6822 6.79445 55.2639 6.58882 54.816 6.48217C54.3678 6.37547 53.9015 6.37056 53.4512 6.4678L53.4482 6.46844C49.5529 7.28479 45.5317 7.29519 41.6322 6.49899C37.733 5.70286 34.038 4.11708 30.7747 1.83931M56.3553 6.69564C55.939 6.35893 55.4526 6.11978 54.9318 5.99577C54.411 5.87177 53.869 5.86606 53.3457 5.97906C49.5171 6.78143 45.5649 6.79165 41.7323 6.0091C37.8996 5.22656 34.2677 3.66781 31.0602 1.42882M30.7747 1.83931C30.7749 1.83942 30.775 1.83953 30.7752 1.83964L31.0602 1.42882M30.7747 1.83931C30.2588 1.48152 29.6458 1.28979 29.018 1.28979C28.3901 1.28979 27.7773 1.48149 27.2613 1.83923M30.7747 1.83931C30.7745 1.83914 30.7742 1.83898 30.774 1.83881L31.0602 1.42882M31.0602 1.42882C30.4604 1.01275 29.7479 0.789795 29.018 0.789795C28.288 0.789795 27.5755 1.01275 26.9757 1.42882M26.9757 1.42882C23.7682 3.66781 20.1363 5.22656 16.3037 6.0091C12.471 6.79165 8.5188 6.78143 4.69027 5.97906C4.16696 5.86606 3.62496 5.87177 3.10414 5.99577C2.58332 6.11978 2.09691 6.35893 1.68066 6.69564M26.9757 1.42882L27.2607 1.83964C27.2609 1.8395 27.2611 1.83937 27.2613 1.83923M26.9757 1.42882L27.2619 1.83881C27.2617 1.83895 27.2615 1.83909 27.2613 1.83923M27.2613 1.83923C23.998 4.11705 20.3029 5.70285 16.4037 6.49899C12.5042 7.29519 8.48303 7.28479 4.58772 6.46843L4.58473 6.46781C4.13445 6.37056 3.66809 6.37547 3.21995 6.48217C2.77196 6.58884 2.35356 6.79451 1.99549 7.08408M1.99549 7.08408C1.99555 7.08403 1.9956 7.08399 1.99566 7.08394L1.68066 6.69564M1.99549 7.08408C1.63789 7.37421 1.34983 7.74077 1.15247 8.15683C0.95508 8.57295 0.853432 9.02801 0.854998 9.48858L0.855004 9.49028L0.855001 36.1827V36.183C0.851865 41.2403 2.05701 46.2251 4.37009 50.7224C6.68317 55.2197 10.0372 59.0993 14.153 62.0382M1.99549 7.08408C1.99537 7.08418 1.99525 7.08428 1.99512 7.08437L1.68066 6.69564M1.68066 6.69564L14.153 62.0382M14.153 62.0382L14.1525 62.0379L13.8624 62.4451M14.153 62.0382L0.355001 36.1827C0.351816 41.3196 1.57595 46.383 3.92546 50.9511C6.27497 55.5193 9.68186 59.46 13.8624 62.4451M14.153 62.0382L13.8624 62.4451M14.153 62.0382L27.2299 71.3533M13.8624 62.4451L26.9399 71.7606M26.9399 71.7606L27.2299 71.3533M26.9399 71.7606L27.23 71.3533L27.2299 71.3533M26.9399 71.7606C27.5467 72.1926 28.2731 72.4248 29.018 72.4248C29.7629 72.4248 30.4892 72.1926 31.096 71.7606M27.2299 71.3533C27.752 71.725 28.377 71.9248 29.018 71.9248C29.6589 71.9248 30.2839 71.725 30.806 71.3533M31.096 71.7606L30.8059 71.3533L30.806 71.3533M31.096 71.7606L30.806 71.3533M7.02074 36.1823C7.01794 40.256 7.98808 44.2714 9.85044 47.8944C11.7128 51.5174 14.4135 54.6433 17.7278 57.0118L17.7282 57.0121L28.7276 64.8586L29.018 65.0657L29.3083 64.8586L40.3077 57.0121L40.3081 57.0118L7.02074 36.1823ZM7.02074 36.1823V13.6106M7.02074 36.1823V13.6106M7.02074 13.066L7.56338 13.1124C14.9698 13.7463 22.3874 12.0279 28.7606 8.20171L29.018 8.0472L29.2753 8.20171C35.6485 12.0279 43.0661 13.7463 50.4725 13.1124L51.0152 13.066V13.6106V36.1823V36.1827H50.5152L7.02074 13.066ZM7.02074 13.066V13.6106M7.02074 13.066V13.6106M24.5421 38.0032L24.8963 38.3614L25.2519 38.0045L34.7917 28.4293L34.8002 28.4271L34.9345 28.3935L35.0325 28.2956C35.6134 27.7147 36.4012 27.3884 37.2227 27.3884C38.0443 27.3884 38.8321 27.7147 39.413 28.2956C39.9939 28.8765 40.3203 29.6644 40.3203 30.4859C40.3203 31.3071 39.9942 32.0947 39.4137 32.6755C39.4135 32.6757 39.4132 32.676 39.413 32.6762L27.0895 44.8922L27.0865 44.8952C26.7999 45.1842 26.4589 45.4135 26.0833 45.57C25.7076 45.7266 25.3046 45.8071 24.8977 45.8071C24.4907 45.8071 24.0877 45.7266 23.7121 45.57C23.3364 45.4135 22.9954 45.1842 22.7088 44.8952L22.7074 44.8938L16.9748 39.1612C16.3939 38.5803 16.0675 37.7924 16.0675 36.9709C16.0675 36.1494 16.3939 35.3615 16.9748 34.7806C17.5557 34.1997 18.3436 33.8734 19.1651 33.8734C19.9862 33.8734 20.7736 34.1994 21.3544 34.7797C21.3547 34.78 21.3551 34.7803 21.3554 34.7806L24.5421 38.0032Z" fill="black" stroke="white"/>
</svg>
